<?xml version="1.0" encoding="utf-8"?>
<!-- Generator: Adobe Illustrator 27.1.1, SVG Export Plug-In . SVG Version: 6.00 Build 0)  -->
<svg version="1.1" id="Capa_1" xmlns="http://www.w3.org/2000/svg" xmlns:xlink="http://www.w3.org/1999/xlink" x="0px" y="0px"
	 viewBox="0 0 1366 768" style="enable-background:new 0 0 1366 768;" xml:space="preserve">
<style type="text/css">
	.st0{display:none;}
	.st1{display:inline;}
	.st2{fill:#419197;}
	.st3{display:inline;fill:#176B87;}
</style>
<path class="st0" d="M543.27,266h33.45c0.71,0,1.27-0.58,1.27-1.28l-0.27-25.76c-0.01-0.7-0.58-1.26-1.27-1.25l-42.38,0.15
	c-0.7,0-1.27-0.56-1.27-1.26l-0.03-8.41c0-0.7,0.56-1.27,1.26-1.27l55.75-0.2c0.7,0,1.27,0.56,1.27,1.26l0.36,98.56
	c0,0.7-0.56,1.27-1.26,1.27l-53.44,0.2c-0.7,0-1.27-0.56-1.27-1.26l-0.03-8.41c0-0.7,0.56-1.27,1.26-1.27l40.07-0.15
	c0.7,0,1.26-0.57,1.26-1.27l0-34.36c0-0.7-0.57-1.27-1.27-1.27h-33.46c-0.7,0-1.27-0.57-1.27-1.27v-11.46
	C542,266.57,542.57,266,543.27,266z"/>
<path class="st0" d="M607.6,277l41.4,52h-16.21l-34.94-44.36"/>
<path class="st0" d="M590.92,285.94v-13h0.47c2.83-3.67,5.65-7.07,8.32-10.18L632.05,227H649l-38.3,40.42"/>
<g>
	<g class="st0">
		<path class="st1" d="M606.92,491.9V201.37h33.49V491.9H606.92z M628.5,396.76l3.7-33.15c21.91,0,41.05-4.23,57.42-12.69
			c16.37-8.46,29.96-20.08,40.78-34.88c10.82-14.8,18.97-31.98,24.45-51.56c5.48-19.57,8.22-40.61,8.22-63.12h34.52
			c0,27.28-3.77,52.75-11.3,76.42c-7.53,23.67-18.56,44.4-33.08,62.2c-14.52,17.8-32.25,31.71-53.21,41.74
			C679.04,391.75,655.2,396.76,628.5,396.76z M771.08,491.9l-71.7-138.72l30-18l82.18,156.72H771.08z"/>
	</g>
</g>
<g>
	<g class="st0">
		<path class="st1" d="M452.3,232.63v-32.07h189.83v32.07H452.3z M452.3,492.49v-32.07h189.83v32.07H452.3z M489.28,362.35v-32.07
			h152.85v32.07H489.28z M608.65,492.49V200.55h33.49v291.94H608.65z"/>
	</g>
</g>
<g>
	<g>
		<path class="st2" d="M623.98,552.34V187.99h42.4v364.36H623.98z M651.29,433.03l4.68-41.57c27.74,0,51.97-5.3,72.7-15.91
			c20.72-10.6,37.93-25.19,51.63-43.75c13.7-18.56,24.01-40.11,30.95-64.66c6.93-24.54,10.4-50.93,10.4-79.16h43.7
			c0,34.21-4.77,66.16-14.31,95.84c-9.54,29.68-23.5,55.68-41.88,78c-18.38,22.32-40.83,39.77-67.36,52.34
			C715.27,426.74,685.1,433.03,651.29,433.03z M831.8,552.34l-90.77-173.97L779,355.79l104.04,196.55H831.8z"/>
	</g>
</g>
<g>
	<g>
		<path class="st2" d="M428.23,227.18v-40.22h240.33v40.22H428.23z M428.23,553.08v-40.22h240.33v40.22H428.23z M475.05,389.87
			v-40.22h193.51v40.22H475.05z M626.16,553.08V186.96h42.4v366.12H626.16z"/>
	</g>
</g>
<g>
	<g class="st0">
		<path class="st3" d="M673.95,522.35h77.99v7.94h-68.77v49.88h57.89v7.94h-57.89v58.09h70.77v7.94h-79.99V522.35z"/>
		<path class="st3" d="M789.6,558.1h7.48l0.96,18.44h0.8c11.07-11.91,22.42-20.84,37.91-20.84c23.29,0,34.47,12.58,34.47,38.62
			v59.82h-8.88V595.5c0-21.46-8-31.81-27.01-31.81c-13.64,0-23.04,7.11-36.86,21.62v68.82h-8.88V558.1z"/>
		<path class="st3" d="M913.17,510.28h8.88v105.67h0.8l61.67-57.84h10.99l-73.46,68.76v27.27h-8.88V510.28z M948.09,598.46
			l5.92-6.14l47.86,61.82h-10.24L948.09,598.46z"/>
		<path class="st3" d="M1076.04,565.82h-48.06v-7.72h56.94v96.03h-8.88V565.82z M1069,525.19c0-5.85,4.14-9.6,9.41-9.6
			s9.41,3.74,9.41,9.6c0,5.91-4.14,9.6-9.41,9.6S1069,531.1,1069,525.19z"/>
	</g>
</g>
<g>
	<g class="st0">
		<path class="st3" d="M387.86,668.84V516.3h17.51v152.54H387.86z M387.86,533.06V516.3h99.26v16.76H387.86z M387.86,600.84v-16.76
			h79.92v16.76H387.86z M387.86,668.84v-16.76h99.26v16.76H387.86z"/>
		<path class="st3" d="M517.63,668.84V554.97h16.87l1.72,24.06v89.8H517.63z M590.14,668.84v-74.23c0-7.95-2.08-14.09-6.23-18.42
			c-4.15-4.33-9.99-6.5-17.51-6.5c-20.12,0-30.19,11.67-30.19,35.02l-6.77-29.11h8.49c1.07-7.66,4.24-13.37,9.51-17.13
			s12.66-5.64,22.18-5.64c12.46,0,22.09,3.65,28.9,10.96c6.8,7.3,10.21,17.62,10.21,30.94v74.12H590.14z"/>
		<path class="st3" d="M645.67,668.84V507.7h18.37v161.13H645.67z M657.38,624.58v-16.87h13.54c10.81,0,19.67-1.7,26.59-5.1
			c6.91-3.4,12.35-8.97,16.33-16.7s6.89-18.05,8.75-30.94h19.34c-3.22,23.71-10.24,41.23-21.05,52.58
			c-10.81,11.35-26.03,17.03-45.65,17.03H657.38z M726.35,668.84l-32.44-56.5l17.08-7.73l38.24,64.24H726.35z"/>
		<path class="st3" d="M774.58,668.84v-15.68h46.84v15.68H774.58z M781.03,570.65v-15.68h56.72v15.68H781.03z M827.54,533.49
			c-3.87,0-7.2-1.38-9.99-4.14c-2.79-2.76-4.19-6.07-4.19-9.94c0-3.94,1.4-7.29,4.19-10.04c2.79-2.76,6.12-4.14,9.99-4.14
			c3.94,0,7.29,1.38,10.04,4.14c2.76,2.76,4.14,6.11,4.14,10.04c0,3.87-1.38,7.18-4.14,9.94
			C834.83,532.11,831.48,533.49,827.54,533.49z M819.27,668.84V560.99h18.48v107.85H819.27z M835.6,668.84v-15.68h38.46v15.68H835.6
			z"/>
	</g>
</g>
</svg>
