<?xml version="1.0" encoding="utf-8"?>
<!-- Generator: Adobe Illustrator 27.1.1, SVG Export Plug-In . SVG Version: 6.00 Build 0)  -->
<svg version="1.1" id="Capa_1" xmlns="http://www.w3.org/2000/svg" xmlns:xlink="http://www.w3.org/1999/xlink" x="0px" y="0px"
	 viewBox="0 0 800 700" style="enable-background:new 0 0 800 700;" xml:space="preserve">
<style type="text/css">
	.st0{fill:#419197;}
</style>
<g>
	<g>
		<path class="st0" d="M349.58,694.86V10.08h72.65v684.77H349.58z M396.38,470.62l8.02-78.12c47.54,0,89.06-9.96,124.57-29.9
			c35.5-19.93,65-47.33,88.47-82.22c23.47-34.88,41.15-75.39,53.04-121.52c11.88-46.13,17.83-95.72,17.83-148.77h74.88
			c0,64.3-8.18,124.34-24.51,180.11c-16.34,55.78-40.27,104.65-71.76,146.6c-31.5,41.95-69.98,74.75-115.44,98.38
			C506.02,458.8,454.32,470.62,396.38,470.62z M705.69,694.86L550.14,367.9l65.07-42.44L793.5,694.86H705.69z"/>
	</g>
</g>
<g>
	<g>
		<path class="st0" d="M14.14,83.75V8.15h411.83v75.59H14.14z M14.14,696.25v-75.59h411.83v75.59H14.14z M94.36,389.51v-75.59h331.6
			v75.59H94.36z M353.32,696.25V8.15h72.65v688.09H353.32z"/>
	</g>
</g>
</svg>
